# xmcd
#
# Track frame offsets:
#	180
#	18418
#	36945
#	56678
#	74326
#	89386
#	103869
#	121011
#	140787
#	152901
#	166056
#	183554
#	192999
#	208741
#	219578
#	233972
#	250279
#	268906
#	287946
#	304981
#
# Disc length: 4331 seconds
#
# Revision: 1
# Processed by: cddbd v1.5.1PL0 Copyright (c) Steve Scherf et al.
# Submitted via: audiograbber 1.83.01
#
DISCID=3910e914
DTITLE=Various Artist - Cap Vert: Anthology 1959-1992 v2
DYEAR=1900
DGENRE=
TTITLE0=Bulimondo - Bulimundo
TTITLE1=Bulimondo - Brageru
TTITLE2=Zeca e Zeze di Nha Reinalda - Nka por si
TTITLE3=Zeca e Zeze di Nha Reinalda - Pila Ku Nha Boi
TTITLE4=Mantenha - Toti Lopi
TTITLE5=Finacon - Fomi 47 
TTITLE6=Travadinha - Toi
TTITLE7=Cesaria Evora - Mar Azul
TTITLE8=Bana - Verdeaninha
TTITLE9=Bana - Avenida Marginal
TTITLE10=Titina - Terra Longe
TTITLE11=Celina - Nha ma Florinda
TTITLE12=Dany Silva - Nha Mudjer
TTITLE13=Cabo Verde Show - Oh Desgostos nes Terra
TTITLE14=Boy Ge Mendes - Grito de bo Fidje
TTITLE15=Tubaroes - Fitch um Odje
TTITLE16=Tubaroes - Nha Terra Scalabrode
TTITLE17=Finacon - Entri Spada i Paredi
TTITLE18=Finacon - Si Manera
TTITLE19=Cesaria Evora - Angola
EXTD=
EXTT0=
EXTT1=
EXTT2=
EXTT3=
EXTT4=
EXTT5=
EXTT6=
EXTT7=
EXTT8=
EXTT9=
EXTT10=
EXTT11=
EXTT12=
EXTT13=
EXTT14=
EXTT15=
EXTT16=
EXTT17=
EXTT18=
EXTT19=
PLAYORDER=
